{"title":"Bleach 2018 1080p WEB-DL DD 5.1 x264 ESub [MW]","magnet":"magnet:?xt=urn:btih:9461a1e8a30190e5756640fe3b0e0c197c94cdcf&dn=Bleach+2018+1080p+WEB-DL+DD+5.1+x264+ESub+%5BMW%5D&tr=udp%3A%2F%2Ftracker.leechers-paradise.org%3A6969&tr=udp%3A%2F%2Fzer0day.ch%3A1337&tr=udp%3A%2F%2Fopen.demonii.com%3A1337&tr=udp%3A%2F%2Ftracker.coppersurfer.tk%3A6969&tr=udp%3A%2F%2Fexodus.desync.com%3A6969","uploader":"MFreaky","categoryP":"video","categoryS":"hd___movies","size":"2184775435","seeders":"1","leechers":"9","description":" <a href=\"https://pichub.site/image/EReu8\" rel=\"nofollow\" target=\"_NEW\">https://pichub.site/image/EReu8</a> <a href=\"\nhttps://pichub.site/image/ES4a5\" rel=\"nofollow\" target=\"_NEW\">\nhttps://pichub.site/image/ES4a5</a> <a href=\"\nhttps://pichub.site/image/ESf8h\" rel=\"nofollow\" target=\"_NEW\">\nhttps://pichub.site/image/ESf8h</a> <a href=\"\nhttps://pichub.site/image/ESJ5j\" rel=\"nofollow\" target=\"_NEW\">\nhttps://pichub.site/image/ESJ5j</a> <a href=\"\nhttps://pichub.site/image/ESMqr\" rel=\"nofollow\" target=\"_NEW\">\nhttps://pichub.site/image/ESMqr</a>\r\n\r\nIMDB <a href=\"\nhttps://www.imdb.com/title/tt5979872/\" rel=\"nofollow\" target=\"_NEW\">\nhttps://www.imdb.com/title/tt5979872/</a>\r\n\r\nVideo\r\nFormat                                   : AVC\r\nFormat/Info                              : Advanced Video Codec\r\nFormat profile                           : High@L4.1\r\nFormat settings                          : CABAC / 4 Ref Frames\r\nFormat settings, CABAC                   : Yes\r\nFormat settings, RefFrames               : 4 frames\r\nCodec ID                                 : V_MPEG4/ISO/AVC\r\nDuration                                 : 1 h 48 min\r\nBit rate                                 : 2 500 kb/s\r\nWidth                                    : 1 920 pixels\r\nHeight                                   : 804 pixels\r\nDisplay aspect ratio                     : 2.40:1\r\nFrame rate mode                          : Constant\r\nFrame rate                               : 23.976 (24000/1001) FPS\r\nColor space                              : YUV\r\nChroma subsampling                       : 4:2:0\r\nBit depth                                : 8 bits\r\nBits/(Pixel*Frame)                       : 0.068\r\nStream size                              : 1.86 GiB (91%)\r\nWriting library                          : x264 core 155 r2901 7d0ff22\r\n\r\nAudio\r\nFormat                                   : AC-3\r\nFormat/Info                              : Audio Coding 3\r\nCodec ID                                 : A_AC3\r\nDuration                                 : 1 h 48 min\r\nBit rate mode                            : Constant\r\nBit rate                                 : 224 kb/s\r\nChannel(s)                               : 6 channels\r\nChannel positions                        : Front: L C R, Side: L R, LFE\r\nSampling rate                            : 48.0 kHz\r\nFrame rate                               : 31.250 FPS (1536 SPF)\r\nBit depth                                : 16 bits\r\nStream size                              : 174 MiB (8%)\r\nLanguage                                 : Japanese\r\n\r\nSubtitle :- English, Arabic, Danish, German, Greek, Spanish, Finnish, French, Hebrew, Indonesian, Italian, Japanese, Korean, Norwegian Bokmal, Dutch, Polish, Portuguese, Romanian, Russian, Swedish, Thai, Turkish, Vietnamese, Chinese Simplified/Traditional","last_updated":"2018-09-15T12:11:05.805Z","parsed":{"xt":"urn:btih:9461a1e8a30190e5756640fe3b0e0c197c94cdcf","dn":"Bleach 2018 1080p WEB-DL DD 5.1 x264 ESub [MW]","tr":["udp://exodus.desync.com:6969","udp://open.demonii.com:1337","udp://tracker.coppersurfer.tk:6969","udp://tracker.leechers-paradise.org:6969","udp://zer0day.ch:1337"],"infoHash":"9461a1e8a30190e5756640fe3b0e0c197c94cdcf","infoHashBuffer":{"type":"Buffer","data":[148,97,161,232,163,1,144,229,117,102,64,254,59,14,12,25,124,148,205,207]},"name":"Bleach 2018 1080p WEB-DL DD 5.1 x264 ESub [MW]","announce":["udp://exodus.desync.com:6969","udp://open.demonii.com:1337","udp://tracker.coppersurfer.tk:6969","udp://tracker.leechers-paradise.org:6969","udp://zer0day.ch:1337"],"urlList":[]}}